<svg width="99.99" height="114.3243222623258" viewBox="0 0 99.99 114.3243222623258" xmlns="http://www.w3.org/2000/svg">
  <defs></defs>
  <g transform="matrix(1.3513513513513513,0,0,1.3513513513513513,-17.43242933943465,-10.405403858906514)">
    <path fill="#0881a3" d="M79.4,16.3c-4.3,0-7.8,3.5-7.8,7.8c0,1.5,0.4,2.9,1.2,4.1L62.9,36c-2.5-2.8-6.2-4.6-10.3-4.6c-3.7,0-7,1.5-9.5,3.8  L28.3,21.5c1.1-1.5,1.8-3.2,1.8-5.2c0-4.8-3.9-8.6-8.6-8.6s-8.6,3.9-8.6,8.6s3.9,8.6,8.6,8.6c2.2,0,4.2-0.8,5.7-2.2l14.7,13.7  c-2,2.4-3.1,5.4-3.1,8.8c0,4.9,2.5,9.1,6.3,11.6l-8.9,15.7c-1.3-0.6-2.8-1-4.3-1c-5.7,0-10.4,4.6-10.4,10.4  c0,5.7,4.6,10.4,10.4,10.4S42.2,87.7,42.2,82c0-3.6-1.8-6.7-4.5-8.6l8.9-15.7c1.8,0.9,3.9,1.4,6,1.4c2.9,0,5.6-0.9,7.8-2.4l7.3,9.3  c-0.8,0.9-1.4,2.1-1.4,3.5c0,2.9,2.3,5.2,5.2,5.2c2.9,0,5.2-2.3,5.2-5.2c0-2.9-2.3-5.2-5.2-5.2c-0.9,0-1.7,0.2-2.5,0.6l-7.4-9.4  c2.8-2.5,4.6-6.2,4.6-10.3c0-2.9-0.9-5.6-2.5-7.9l9.9-7.8c1.4,1.4,3.4,2.3,5.5,2.3c4.3,0,7.8-3.5,7.8-7.8S83.7,16.3,79.4,16.3z"></path>    
  </g>
</svg>